<svg xmlns="http://www.w3.org/2000/svg" width="62" height="65" viewBox="0 0 62 65"><path d="M31.094,0c17.121,0,31,14.551,31,32.5S48.215,65,31.094,65s-31-14.551-31-32.5S13.973,0,31.094,0Z" transform="translate(-0.094)" fill="#7098c8" fill-rule="evenodd"/><path d="M65.39,87.466c10.022.08,21.258,1.184,21.348,2.081.141.868-12.045-.74-21.845-.563-5.125.018-9.221.313-12.6.534-3.319.218-5.926.363-6.585.01-1.315-.734,10.022-2.238,19.687-2.062Z" transform="translate(-35.491 -68.121)" fill="#eecf86" fill-rule="evenodd"/><path d="M61.365,91.441c10.911.1,23.145,1.48,23.243,2.6.154,1.085-13.113-.925-23.783-.7-5.58.023-10.039.392-13.723.668-3.614.273-6.452.453-7.169.013-1.432-.917,10.911-2.8,21.433-2.578Z" transform="translate(-30.995 -71.215)" fill="#eecf86" fill-rule="evenodd"/><path d="M65.831,98.061c10.23.1,21.7,1.48,21.791,2.6.144,1.085-12.294-.925-22.3-.7-5.231.023-9.412.392-12.866.668-3.388.273-6.049.453-6.722.013-1.343-.917,10.23-2.8,20.1-2.578Z" transform="translate(-35.515 -76.372)" fill="#eecf86" fill-rule="evenodd"/><path d="M70.316,105.072c10.064.08,21.347,1.184,21.438,2.081.142.868-12.1-.74-21.937-.563-5.147.018-9.26.313-12.657.534-3.333.218-5.951.363-6.613.01-1.321-.734,10.064-2.238,19.769-2.062Z" transform="translate(-39.351 -81.834)" fill="#eecf86" fill-rule="evenodd"/><path d="M63.931,110.368c10.58.08,22.443,1.184,22.538,2.081a.085.085,0,0,1-.024.074.266.266,0,0,1-.1.061,1.623,1.623,0,0,1-.4.083c-.179.02-.4.032-.663.038-.131,0-.271,0-.421,0s-.31,0-.478-.006c-1.347-.026-3.266-.14-5.515-.277-4.5-.275-10.305-.632-15.518-.555-5.449.007-9.874.273-13.789.395-1.912.063-3.693.091-5.027.075a8.176,8.176,0,0,1-2.311-.176.031.031,0,0,1-.005-.046.193.193,0,0,1,.074-.049,2.147,2.147,0,0,1,.362-.109c.33-.078.826-.166,1.449-.264,1.247-.195,2.994-.428,5.066-.644s4.478-.411,7.014-.538c1.268-.064,2.567-.111,3.868-.137.651-.013,1.3-.02,1.949-.022s1.293,0,1.93.014Z" transform="translate(-32.855 -85.96)" fill="#eecf86" fill-rule="evenodd"/><path d="M75.279,159.216c8.962-.08,19.011-1.184,19.091-2.081.126-.868-10.771.74-19.536.563-4.583-.018-8.246-.313-11.272-.534-2.968-.218-5.3-.363-5.889-.01-1.176.734,8.962,2.238,17.606,2.062Z" transform="translate(-44.811 -122.199)" fill="#c1791c" fill-rule="evenodd"/><path d="M71.761,153.181c9.8-.1,20.788-1.48,20.876-2.6.138-1.085-11.778.925-21.362.7-5.012-.023-9.017-.392-12.326-.668-3.246-.273-5.8-.453-6.44-.013-1.286.917,9.8,2.8,19.252,2.578Z" transform="translate(-40.879 -117.044)" fill="#c1791c" fill-rule="evenodd"/><path d="M75.757,146.561c9.19-.1,19.5-1.48,19.577-2.6.129-1.085-11.046.925-20.033.7-4.7-.023-8.456-.392-11.559-.668-3.044-.273-5.435-.453-6.039-.013-1.206.917,9.191,2.8,18.054,2.578Z" transform="translate(-44.922 -111.888)" fill="#c1791c" fill-rule="evenodd"/><path d="M79.7,141.61c9-.08,19.1-1.184,19.181-2.081.127-.868-10.822.74-19.628.563-4.6-.018-8.285-.313-11.325-.534-2.982-.218-5.325-.363-5.917-.01-1.182.734,9,2.238,17.688,2.062Z" transform="translate(-48.276 -108.485)" fill="#c1791c" fill-rule="evenodd"/><path d="M74.058,136.314c9.5-.08,20.159-1.184,20.244-2.081a.091.091,0,0,0-.021-.074.235.235,0,0,0-.087-.061,1.334,1.334,0,0,0-.362-.083c-.161-.02-.36-.032-.6-.038q-.176,0-.379,0t-.429.006c-1.21.026-2.933.141-4.953.277-4.044.275-9.256.632-13.939.555-4.894-.007-8.869-.273-12.386-.395-1.717-.063-3.317-.091-4.515-.075a6.627,6.627,0,0,0-2.075.176.034.034,0,0,0,0,.046.177.177,0,0,0,.066.049,1.8,1.8,0,0,0,.325.109c.3.078.742.166,1.3.264,1.12.195,2.689.428,4.55.644s4.022.411,6.3.538c1.139.064,2.306.111,3.474.137.584.013,1.169.02,1.751.022s1.161,0,1.734-.014Z" transform="translate(-42.546 -104.36)" fill="#c1791c" fill-rule="evenodd"/><path d="M70.613,177.955c9.539-.267,20.273.447,20.394,1.34.168.862-11.489-.323-20.807.194-4.876.2-8.761.632-11.972.971-3.15.333-5.624.568-6.265.238-1.28-.688,9.448-2.583,18.651-2.743Z" transform="translate(-40.36 -138.576)" fill="#9e771b" fill-rule="evenodd"/><path d="M67.089,181.895c10.428-.278,22.17.678,22.307,1.794.189,1.078-12.564-.471-22.749.12-5.33.216-9.576.739-13.084,1.143-3.442.4-6.146.676-6.849.261-1.4-.867,10.314-3.173,20.376-3.318Z" transform="translate(-36.441 -141.653)" fill="#9e771b" fill-rule="evenodd"/><path d="M71.6,188.547c9.78-.255,20.794.728,20.926,1.844.18,1.079-11.785-.5-21.336.069-5,.2-8.979.717-12.269,1.113-3.227.39-5.763.662-6.423.245-1.319-.87,9.666-3.149,19.1-3.272Z" transform="translate(-40.864 -146.841)" fill="#9e771b" fill-rule="evenodd"/><path d="M76,195.381c9.581-.267,20.363.447,20.484,1.34.169.862-11.54-.323-20.9.194-4.9.2-8.8.632-12.025.971-3.164.333-5.649.568-6.293.238-1.286-.688,9.49-2.583,18.733-2.743Z" transform="translate(-44.579 -152.15)" fill="#9e771b" fill-rule="evenodd"/><path d="M70.184,200.627c10.112-.287,21.489.406,21.615,1.3a.087.087,0,0,1-.02.075.252.252,0,0,1-.09.064,1.5,1.5,0,0,1-.382.1c-.17.026-.382.046-.631.06q-.187.011-.4.018c-.143,0-.3.008-.457.011-1.288.02-3.126-.027-5.28-.086-4.312-.118-9.871-.275-14.848-.018-5.205.2-9.423.615-13.159.872-1.824.129-3.524.219-4.8.249a7.49,7.49,0,0,1-2.215-.1.032.032,0,0,1-.007-.046.187.187,0,0,1,.068-.052,2,2,0,0,1,.342-.121c.313-.089.783-.194,1.374-.314,1.184-.238,2.844-.532,4.815-.819s4.262-.566,6.681-.781c1.209-.108,2.448-.2,3.69-.271.621-.036,1.243-.066,1.862-.09s1.235-.042,1.844-.053Z" transform="translate(-38.7 -156.229)" fill="#9e771b" fill-rule="evenodd"/><path d="M138.772,39.084c1.014.586-1.183,10.3-4.908,21.7s-7.566,20.165-8.58,19.58,1.183-10.3,4.908-21.7S137.758,38.5,138.772,39.084Z" transform="translate(-97.384 -30.381)" fill="#eae9e8" fill-rule="evenodd"/><path d="M97.037,210.685a3.79,3.79,0,0,1,2.107,3.356,13.754,13.754,0,0,1,.006,2.579c-.017.228-.038.457-.062.686s-.051.458-.082.684c-.062.453-.136.9-.231,1.32a4.7,4.7,0,0,1-2.4,3.445,4.357,4.357,0,0,1-2.1.535,10.973,10.973,0,0,1-1.329-.09c-.245-.027-.5-.057-.771-.084s-.55-.05-.838-.062a11.242,11.242,0,0,0-2.952.3,1.518,1.518,0,0,1-.376.032c-.092-.009-.15-.041-.169-.106a.251.251,0,0,1,0-.121.817.817,0,0,1,.061-.171,2.967,2.967,0,0,1,.311-.493c.488-.744,1.4-1.779,2.145-2.714a12.691,12.691,0,0,0,1-1.414,7.95,7.95,0,0,0,.667-1.432c.59-1.935.944-3.871,1.866-5.048a3.317,3.317,0,0,1,1.423-1.221,2.207,2.207,0,0,1,.838-.157,2.369,2.369,0,0,1,.444.046,2.568,2.568,0,0,1,.45.133Z" transform="translate(-68.408 -164.051)" fill="#6d6249" fill-rule="evenodd"/><path d="M101.644,221.4a2.382,2.382,0,0,1,.082.916c-.011.2-.036.422-.072.655s-.084.478-.141.727c-.1.453-.238.939-.4,1.433-.075.236-.155.474-.237.708s-.162.455-.246.675a11.023,11.023,0,0,1-1,2.074,3.053,3.053,0,0,1-.555.662,1.461,1.461,0,0,1-.3.2,1.527,1.527,0,0,1-.172.071q-.092.031-.192.055a1.979,1.979,0,0,1-.758.053.2.2,0,0,1-.049-.022.126.126,0,0,1-.036-.033.164.164,0,0,1-.026-.106.373.373,0,0,1,.011-.075q.005-.021.013-.043c.005-.015.011-.031.018-.047a1.081,1.081,0,0,1,.129-.222,10.951,10.951,0,0,1,1.038-1.13,5,5,0,0,0,.534-.7,6,6,0,0,0,.426-.824,37.692,37.692,0,0,0,1.222-3.855,6.5,6.5,0,0,1,.4-1.177c.057-.1.112-.15.164-.148a.081.081,0,0,1,.038.011.134.134,0,0,1,.036.03.382.382,0,0,1,.064.114Z" transform="translate(-75.966 -172.407)" fill="#e7e2e2" fill-rule="evenodd"/><path d="M133.251,171.642l3.268,2.235-.258.663-3.268-2.235Z" transform="translate(-103.56 -133.702)" fill="#b78e2c" fill-rule="evenodd"/><path d="M130.971,181.919l3.107,1.947-.217.624-3.107-1.947Z" transform="translate(-101.817 -141.706)" fill="#b78e2c" fill-rule="evenodd"/></svg>