<svg xmlns="http://www.w3.org/2000/svg" width="274" height="274" viewBox="0 0 274 274"><g transform="translate(-951 -232)"><rect width="274" height="274" transform="translate(951 232)" fill="#f4d288"/><g transform="translate(1016.014 277.887)"><path d="M60.462,402c33.392,0,60.462,7.054,60.462,15.755S93.855,433.51,60.462,433.51,0,426.457,0,417.755,27.07,402,60.462,402Z" transform="translate(-0.009 -251.13)" fill="#3e2a00" fill-rule="evenodd"/><path d="M65.672,410c31.851,0,57.672,5.71,57.672,12.754s-25.821,12.754-57.672,12.754S8,429.8,8,422.754,33.821,410,65.672,410Z" transform="translate(-5.032 -256.129)" fill="#f1f1f1" fill-rule="evenodd"/><path d="M99.51,419c21.268,0,38.51,3.779,38.51,8.44s-17.242,8.44-38.51,8.44S61,432.1,61,427.44,78.242,419,99.51,419Z" transform="translate(-38.312 -261.753)" fill="#3e2a00" fill-rule="evenodd"/><path d="M282.016,205.123c1.581-.059,3.183-.1,4.791-.121q1.205-.014,2.413-.008t2.407.036a79.6,79.6,0,0,1,9.345.732c5.973.867,11.328,2.607,15.2,5.9a22.77,22.77,0,0,1,8.2,12.5,37.276,37.276,0,0,1,1.271,7.517c.09,1.252.129,2.493.132,3.706s-.029,2.4-.078,3.543c-.033,8.942-5.247,18.166-14.2,24.846a41.165,41.165,0,0,1-17.737,7.2,58.107,58.107,0,0,1-6.067.67q-1.62.1-3.349.117t-3.575-.038A118.593,118.593,0,0,1,264,269.859a48.1,48.1,0,0,1,.773-7.63c19.406,3.086,30.857.308,39.064-4.964,8.027-5.29,12.848-13.05,13.852-20.559,1.039-7.518-1.383-15.508-8.219-19.636-6.541-4.366-17.282-4.845-27.952-3.292a58.93,58.93,0,0,0,.5-8.653Z" transform="translate(-165.781 -128.025)" fill="#3e2a00" fill-rule="evenodd"/><path d="M3.627,167.159c9.735-1.062,19.571-1.868,29.413-2.4q7.382-.4,14.767-.589,3.691-.1,7.378-.139,1.843-.021,3.685-.03L60.71,164h1.84q3.679.009,7.349.071t7.328.175q7.315.227,14.572.66c9.671.576,19.252,1.427,28.683,2.51a4.335,4.335,0,0,1,2.557,1.32,4.422,4.422,0,0,1,.827,1.189,3.749,3.749,0,0,1,.241.668,3.434,3.434,0,0,1,.07.346c.009.058.016.116.021.175s.009.117.012.176q.036.863.049,1.723.006.43.007.86v.215c0,.072,0,.143,0,.215,0,.143,0,.286,0,.429q-.02,1.715-.122,3.416c-.133,2.265-.364,4.5-.659,6.695-.59,4.381-1.435,8.579-2.276,12.386-.354,1.592-1.822,6.694-3.363,11.238-7.4,22.732-16.852,40.368-27.059,50.031a47.861,47.861,0,0,1-15.068,10.325,35.724,35.724,0,0,1-7.413,2.194,34.15,34.15,0,0,1-3.716.459q-.933.064-1.87.077l-.469,0q-.235,0-.47,0-.47-.006-.942-.025c-9.512-.44-21.627-4.822-31.472-15.578-10.017-10.574-17.837-27.6-23.253-48.828a77.933,77.933,0,0,1-2.231-9.529c-.415-5.487-3.55-16.93-3.889-26.481,0-.062,0-.123,0-.185s0-.122.009-.183a3.4,3.4,0,0,1,.047-.36,3.523,3.523,0,0,1,.2-.691,3.994,3.994,0,0,1,.788-1.212,4.253,4.253,0,0,1,2.592-1.322Z" transform="translate(0 -102.409)" fill="#3e2a00" fill-rule="evenodd"/><path d="M11.752,174.972c9.233-1,18.558-1.758,27.891-2.256q7-.374,14-.554,3.5-.089,7-.13,1.748-.02,3.494-.029l1.746,0q.872,0,1.745,0,3.489.008,6.969.066t6.949.164q6.937.214,13.817.621c9.17.542,18.254,1.342,27.2,2.362a4.122,4.122,0,0,1,2.425,1.242,4.169,4.169,0,0,1,.784,1.119,3.508,3.508,0,0,1,.228.629,3.256,3.256,0,0,1,.066.326c.008.054.015.11.02.164s.009.11.011.166q.035.811.046,1.621t0,1.617q-.019,1.614-.116,3.213c-.127,2.131-.347,4.237-.63,6.3-.566,4.121-1.38,8.065-2.2,11.64-.344,1.5-1.773,6.284-3.293,10.54-7.3,21.286-16.958,37.725-26.706,46.853a47.592,47.592,0,0,1-14.154,9.777,32.406,32.406,0,0,1-6.8,2.091,29.939,29.939,0,0,1-3.387.437q-.848.061-1.7.072T65.447,273c-8.63-.418-19.6-4.644-28.879-14.766-9.415-9.959-17.14-25.814-22.388-45.708a70.8,70.8,0,0,1-2.158-8.937c-.411-5.151-3.4-15.9-3.72-24.894,0-.058,0-.116,0-.174s0-.115.008-.172a3.119,3.119,0,0,1,.045-.339,3.287,3.287,0,0,1,.194-.65,3.755,3.755,0,0,1,.747-1.141,4.043,4.043,0,0,1,2.458-1.244Z" transform="translate(-5.22 -107.408)" fill="#f1f1f1" fill-rule="evenodd"/><path d="M194.046,288.767c-2.13-11.956,1.635-25.036-2.894-33.747-3.519-9.158-15.607-14.316-25.571-20.012,20.319-.671,32.973,1.876,54.478-4.018-4.993,12.256-5.08,20.3-8.738,28.214-3.236,7.949-9.514,15.758-17.275,29.563Z" transform="translate(-103.981 -144.27)" fill="#3e2a00" fill-rule="evenodd"/><path d="M74.407,181c29.591,0,54.141,3.237,54.85,7.324.729,4.2-23.821,7.681-54.85,7.681s-55.579-3.485-54.85-7.681C20.266,184.237,44.816,181,74.407,181Z" transform="translate(-12.279 -113.032)" fill="#1c180f" fill-rule="evenodd"/><path d="M114.137.3c-11.08,12.307-6.715,20.829-2.635,29.89,2.037,4.531,4.243,8.71,4.8,12.816a14.533,14.533,0,0,1,.127,1.54,12.517,12.517,0,0,1-.049,1.535,11.721,11.721,0,0,1-.726,3.1c-.81,2.125-2.289,4.329-5.128,7.7-3.667,1.495-7.522,3.416-10.235,2.744,10.339-11.186,6.032-19.8,1.8-28.627-2.132-4.388-4.42-8.441-4.973-12.558a14.323,14.323,0,0,1-.128-1.538,12.6,12.6,0,0,1,.049-1.535,11.648,11.648,0,0,1,.733-3.111c.827-2.152,2.342-4.409,5.488-8.245C107.279,1.988,111.58-.608,114.137.3Z" transform="translate(-60.91 0)" fill="#1c180f" fill-rule="evenodd"/><path d="M163.743,30.139c-10.179,9.83-6.169,16.637-2.421,23.874,1.872,3.619,3.9,6.957,4.412,10.237a10.128,10.128,0,0,1,.117,1.23,8.775,8.775,0,0,1-.045,1.226,8.347,8.347,0,0,1-.667,2.475c-.744,1.7-2.1,3.458-4.711,6.15-3.369,1.194-6.909,2.728-9.4,2.192,9.5-8.934,5.542-15.812,1.654-22.866-1.958-3.5-4.06-6.743-4.569-10.031a9.95,9.95,0,0,1-.118-1.229,8.717,8.717,0,0,1,.045-1.226,8.3,8.3,0,0,1,.674-2.484c.76-1.719,2.151-3.522,5.042-6.586,3.688-1.614,7.639-3.688,9.989-2.963Z" transform="translate(-92.934 -18.67)" fill="#1c180f" fill-rule="evenodd"/><path d="M207.168,56.111c-6.574,7.82-3.984,13.235-1.563,18.992,1.208,2.879,2.517,5.534,2.849,8.144.041.327.067.653.075.978a8.539,8.539,0,0,1-.029.976,7.9,7.9,0,0,1-.431,1.969,17.9,17.9,0,0,1-3.042,4.892c-2.176.95-4.463,2.17-6.072,1.744,6.134-7.108,3.579-12.579,1.068-18.19-1.265-2.788-2.622-5.364-2.951-7.979a9.616,9.616,0,0,1-.076-.978,8.548,8.548,0,0,1,.029-.976,7.842,7.842,0,0,1,.435-1.976,20.294,20.294,0,0,1,3.256-5.239c2.382-1.284,4.934-2.934,6.451-2.357Z" transform="translate(-123.705 -34.918)" fill="#1c180f" fill-rule="evenodd"/></g></g></svg>