<svg xmlns="http://www.w3.org/2000/svg" width="62" height="65" viewBox="0 0 62 65"><path d="M31.562,0c17.121,0,31,14.551,31,32.5S48.683,65,31.562,65s-31-14.551-31-32.5S14.441,0,31.562,0Z" transform="translate(-0.562)" fill="#7098c8" fill-rule="evenodd"/><path d="M84.117,75.375h20.63a2.211,2.211,0,0,1,2.211,2.211v30.545a2.211,2.211,0,0,1-2.211,2.211H84.117a2.211,2.211,0,0,1-2.211-2.211V77.586A2.211,2.211,0,0,1,84.117,75.375Z" transform="translate(-63.862 -58.71)" fill="#f1f1f1" fill-rule="evenodd"/><path d="M91.594,85.594h20.554v29.412H91.594Z" transform="translate(-71.408 -66.67)" fill="#eecf86" fill-rule="evenodd"/><path d="M135.286,221.438a.935.935,0,1,1-1.067.926A1,1,0,0,1,135.286,221.438Z" transform="translate(-104.608 -172.481)" fill="#eecf86" fill-rule="evenodd"/></svg>