<svg xmlns="http://www.w3.org/2000/svg" width="247" height="240" viewBox="0 0 247 240"><g transform="translate(-215 -1889)"><rect width="247" height="240" transform="translate(215 1889)" fill="#f4ba88"/><g transform="translate(242.992 1928.022)"><path d="M981.594,1386c30.1,0,61.032,4.757,67.294,12.8,6.749,8.673-20.738,18.187-67.294,18.187s-74.043-9.514-67.29-18.187C920.565,1390.757,951.5,1386,981.594,1386Z" transform="translate(-869.226 -1255.844)" fill="#262625" fill-rule="evenodd"/><g transform="translate(73.729 1.975)"><rect width="103.832" height="144.681" rx="10" fill="#577676"/><g transform="translate(1.264 0.165)"><path d="M994.109,1067.91h94.576a3.978,3.978,0,0,1,4.008,3.638,45.889,45.889,0,0,1-.225,5.594c-.08.3-1.928,1.24-4.085,2.58-30.61,18.964-58.79,4.129-93.538,4.1a4.946,4.946,0,0,1-4.424-4.5c-.018-3.546-.187-5.357-.279-8.061-.05-1.582,1.743-3.348,3.967-3.356Z" transform="translate(-990.141 -1067.91)" fill="#c9a040" fill-rule="evenodd"/><path d="M1032.581,1086.448a4.94,4.94,0,0,1,5.4,4.978,18.963,18.963,0,0,1,.084,2.572c-.008.455-.024.922-.044,1.4s-.04.962-.064,1.457c-.093,1.976-.225,4.1-.193,6.226a57.744,57.744,0,0,1-.161,6.717,39.127,39.127,0,0,1-1.3,7.107,34.682,34.682,0,0,1-2.358,6.194,9.559,9.559,0,0,1-1.264,1.944,2.458,2.458,0,0,1-.6.511,1.191,1.191,0,0,1-.294.121.776.776,0,0,1-.141.024.513.513,0,0,1-.137,0,.582.582,0,0,1-.145,0c-.048,0-.1-.012-.145-.02a1.091,1.091,0,0,1-.286-.121,2.02,2.02,0,0,1-.555-.511,8.126,8.126,0,0,1-1.046-1.952,42.092,42.092,0,0,1-1.787-6.282,75.22,75.22,0,0,1-1.706-14.6c-.068-2.206-.233-4.484-.294-6.476-.008-.245-.012-.491-.016-.732s0-.475,0-.7c0-.463.016-.9.048-1.316a7.653,7.653,0,0,1,.455-2.225,5.7,5.7,0,0,1,2.588-3.123,8.36,8.36,0,0,1,1.964-.885,7.208,7.208,0,0,1,1.014-.229c.169-.028.334-.044.5-.056s.326-.016.487-.016h0Z" transform="translate(-1011.284 -1078.974)" fill="#c9a040" fill-rule="evenodd"/><path d="M1092.719,1089.225c.3.024.588.056.865.1s.551.1.809.165a6.306,6.306,0,0,1,1.38.511,3.521,3.521,0,0,1,1.666,1.65c.624,1.352.318,3.143.306,5.252q-.03.791-.048,1.63c-.012.559-.02,1.131-.032,1.718s-.02,1.191-.032,1.807-.028,1.24-.044,1.879c-.064,2.548-.205,5.292-.322,8.065s-.213,5.707-.483,8.725a55.6,55.6,0,0,1-1.586,9.2,67.154,67.154,0,0,1-2.672,8.069,14.007,14.007,0,0,1-1.292,2.536,2.787,2.787,0,0,1-.6.668.919.919,0,0,1-.29.153.557.557,0,0,1-.141.032c-.024,0-.044,0-.068,0a.354.354,0,0,1-.068-.008.575.575,0,0,1-.145,0,.625.625,0,0,1-.145-.028.969.969,0,0,1-.282-.153,2.416,2.416,0,0,1-.555-.668,12.447,12.447,0,0,1-1.079-2.564c-.708-2.177-1.437-5.228-2.181-8.443a127.769,127.769,0,0,1-3.087-19.8c-.241-2.974-.495-5.972-.6-8.58-.012-.326-.024-.644-.032-.958s-.016-.624-.02-.926c-.012-.608-.012-1.187,0-1.739a15.672,15.672,0,0,1,.3-3.018,5.485,5.485,0,0,1,3.336-4.3,12.063,12.063,0,0,1,3.5-.966,14.94,14.94,0,0,1,1.88-.133q.465,0,.906.024c.294.016.58.044.853.08h0Z" transform="translate(-1044.989 -1080.584)" fill="#c9a040" fill-rule="evenodd"/><path d="M1180.37,1083.508c.382-.073.745-.137,1.091-.193s.668-.1.97-.145c.6-.08,1.115-.137,1.537-.161.841-.048,1.3.02,1.529.3a2.465,2.465,0,0,1,.209,1.553c-.036.757-.141,1.743-.225,2.861-.048.572-.1,1.187-.161,1.843s-.121,1.356-.189,2.1-.141,1.537-.221,2.375-.165,1.726-.257,2.66c-.366,3.719-.845,8.278-1.316,13.14s-.954,10.283-1.473,15.994-1.127,11.691-1.936,17.257c-.789,5.4-1.694,10.271-2.495,13.615a23.3,23.3,0,0,1-1.2,3.9,3.642,3.642,0,0,1-.612.994,1.032,1.032,0,0,1-.306.233.761.761,0,0,1-.157.044.486.486,0,0,1-.077,0,.473.473,0,0,1-.076-.008.531.531,0,0,1-.161,0,.631.631,0,0,1-.161-.04,1.2,1.2,0,0,1-.322-.229,3.591,3.591,0,0,1-.644-.99,19.884,19.884,0,0,1-1.235-3.811c-.793-3.244-1.521-7.787-2.29-12.512a274.122,274.122,0,0,1-3.433-28.856c-.282-4.343-.579-8.725-.7-12.544-.012-.479-.028-.95-.036-1.409s-.02-.914-.024-1.356-.008-.877-.008-1.3,0-.841.012-1.248a29.628,29.628,0,0,1,.346-4.435,8.4,8.4,0,0,1,4.266-6.6,19.818,19.818,0,0,1,4.842-2c.873-.25,1.755-.459,2.588-.632.415-.085.821-.161,1.211-.225s.761-.129,1.115-.181h0Z" transform="translate(-1095.219 -1076.924)" fill="#c9a040" fill-rule="evenodd"/><ellipse cx="13.281" cy="7.647" rx="13.281" ry="7.647" transform="translate(46.627 14.122)" fill="#c9a040"/><path d="M1052.868,1092.065c1.755-.133,7.248-.016,9.78,1.545a4.127,4.127,0,0,1,2.387,2.874,4.411,4.411,0,0,1,.1.817v.2c0,.068,0,.133-.008.2-.008.133-.02.262-.04.386a4.324,4.324,0,0,1-.423,1.36c-.31,1.759-.519,6.588-2.141,8.162a2.219,2.219,0,0,1-1.352.885,2.526,2.526,0,0,1-.391.04,2.761,2.761,0,0,1-.4-.032,3.1,3.1,0,0,1-.833-.258,12.675,12.675,0,0,1-3.457-2.89c-2.153-2.2-5.522-4.616-8.085-5.055-2.608-.757-4.1-.06-4.238-2.246a12.23,12.23,0,0,1-.765-3.872c0-.084,0-.165,0-.245l.012-.241a4.318,4.318,0,0,1,.056-.467,3.276,3.276,0,0,1,.237-.825,1.87,1.87,0,0,1,1.115-1.058,3.27,3.27,0,0,1,1.8-.366,14.354,14.354,0,0,1,2.362.3,37.719,37.719,0,0,0,4.282.785h0Z" transform="translate(-1021.727 -1081.69)" fill="#c9a040" fill-rule="evenodd"/></g></g><g transform="translate(0.008 -0.022)"><path d="M891.261,1089.559c.382,12.118,1.042,24.26,8.319,31.629,6.741,7.751,20.1,10.729,33.5,13.454,13.486,2.628,25.93,5.759,32.7,11.836a24.147,24.147,0,0,1,2.37,2.338,21.827,21.827,0,0,1,1.92,2.531,20.6,20.6,0,0,1,2.519,5.574,25.585,25.585,0,0,1,.2,12.44c-3.34,17.032-22.742,32.188-45.847,40.277a88.888,88.888,0,0,1-16.943,4.1,74.879,74.879,0,0,1-8.295.664q-2.053.048-4.085-.012c-1.352-.044-2.7-.125-4.049-.241-10.729-.946-21.317-4.085-32.514-8.749-22.746-9.075-40.563-24.694-49.1-43.545a78.434,78.434,0,0,1-7.993-28.6q-.121-1.823-.132-3.65t.091-3.666a59.214,59.214,0,0,1,.88-7.357,65.731,65.731,0,0,1,4.565-14.649c8.766-19.414,23.031-31.991,43.443-38.474a61.994,61.994,0,0,1,15.149-2.861,34.241,34.241,0,0,1,7.022.33,23.61,23.61,0,0,1,3.171.732,18.345,18.345,0,0,1,2.873,1.151c7.486,3.461,9.927,12.621,10.245,24.755h0Z" transform="translate(-803.821 -1062.538)" fill="#f3ebd7" fill-rule="evenodd"/><ellipse cx="15.293" cy="15.494" rx="15.293" ry="15.494" transform="translate(42.732 31.98)" fill="#198181"/><ellipse cx="15.293" cy="15.494" rx="15.293" ry="15.494" transform="translate(64.062 75.445)" fill="#69c9c9"/><ellipse cx="15.293" cy="15.494" rx="15.293" ry="15.494" transform="translate(112.758 87.116)" fill="#b7efef"/></g><g transform="translate(56.009 8.607)"><path d="M1062.669,1084.084c2.942,1.928-6.145,29.761-20.3,62.171s-28.015,57.128-30.957,55.2,6.145-29.761,20.3-62.171S1059.723,1082.16,1062.669,1084.084Z" transform="translate(-983.535 -1083.979)" fill-rule="evenodd"/><circle cx="17.67" cy="17.67" r="17.67" transform="translate(0 108.395)"/><path d="M973.83,1369.289a6.325,6.325,0,0,1,.026,2.568,18.337,18.337,0,0,1-.366,1.811c-.161.64-.359,1.312-.583,1.992-.407,1.24-.92,2.564-1.5,3.908-.275.644-.563,1.288-.86,1.924q-.432.93-.882,1.831a30.9,30.9,0,0,1-3.406,5.57,8.774,8.774,0,0,1-1.783,1.726,4.28,4.28,0,0,1-.937.491,5.119,5.119,0,0,1-.523.165c-.183.044-.376.08-.575.109a6,6,0,0,1-2.233-.008.606.606,0,0,1-.14-.068.4.4,0,0,1-.1-.1.438.438,0,0,1-.053-.3,1.062,1.062,0,0,1,.052-.205c.013-.036.029-.077.047-.117s.04-.084.063-.129a3.186,3.186,0,0,1,.431-.591,32.416,32.416,0,0,1,3.308-2.93,14.375,14.375,0,0,0,1.731-1.843,17.069,17.069,0,0,0,1.444-2.205,103,103,0,0,0,4.491-10.484,17.862,17.862,0,0,1,1.458-3.191.666.666,0,0,1,.515-.378.269.269,0,0,1,.107.036.443.443,0,0,1,.1.093,1.018,1.018,0,0,1,.161.33h0Z" transform="translate(-953.095 -1254.191)" fill="#e7e2e2" fill-rule="evenodd"/><path d="M1030.644,1294.85l9.051,6.9-.914,1.791-9.051-6.9Z" transform="translate(-994.813 -1209.985)" fill="#e3e2e2" fill-rule="evenodd"/><path d="M1025.575,1310.37l8.649,6.065-.785,1.69-8.649-6.061Z" transform="translate(-991.861 -1219.259)" fill="#e3e2e2" fill-rule="evenodd"/></g></g></g></svg>