<svg xmlns="http://www.w3.org/2000/svg" width="62" height="65" viewBox="0 0 62 65"><path d="M31,0C48.121,0,62,14.551,62,32.5S48.121,65,31,65,0,50.449,0,32.5,13.879,0,31,0Z" fill="#7098c8" fill-rule="evenodd"/><path d="M125.259,203.765l-10.979.011,5.5,14.872Z" transform="translate(-88.984 -158.817)" fill="#efd495" fill-rule="evenodd"/><path d="M132.663,242,128,242l2.336,6.438Z" transform="translate(-99.653 -188.553)" fill-rule="evenodd"/><path d="M130.829,60h.341A1.829,1.829,0,0,1,133,61.829V92.393a1.829,1.829,0,0,1-1.829,1.829h-.341A1.829,1.829,0,0,1,129,92.393V61.829A1.829,1.829,0,0,1,130.829,60Z" transform="translate(-100.433 -46.81)" fill="#c9a040" fill-rule="evenodd"/><path d="M149.048,59.531h0a1.83,1.83,0,0,1,1.83,1.83V92.028a1.829,1.829,0,0,1-1.83,1.829h0a1.829,1.829,0,0,1-1.829-1.829V61.361A1.829,1.829,0,0,1,149.048,59.531Z" transform="translate(-114.616 -46.444)" fill="#b78e2c" fill-rule="evenodd"/><path d="M116.111,59.531h0a1.829,1.829,0,0,1,1.829,1.83V92.028a1.829,1.829,0,0,1-1.829,1.829h0a1.83,1.83,0,0,1-1.83-1.829V61.361A1.83,1.83,0,0,1,116.111,59.531Z" transform="translate(-88.973 -46.444)" fill="#d5ac4d" fill-rule="evenodd"/><path d="M116.5,34.438h6.535a2.222,2.222,0,0,1,2.222,2.222v3.618a2.222,2.222,0,0,1-2.222,2.222H116.5a2.222,2.222,0,0,1-2.222-2.222V36.66A2.222,2.222,0,0,1,116.5,34.438Z" transform="translate(-88.985 -26.785)" fill="#cc660b" fill-rule="evenodd"/><path d="M114.281,55.813H125.26v7.236H114.281Z" transform="translate(-88.985 -43.481)" fill="#eae9e8" fill-rule="evenodd"/><path d="M114.281,63.281H125.26v1.653H114.281Z" transform="translate(-88.985 -49.292)" fill="#d6d4d2" fill-rule="evenodd"/><path d="M114.281,73.5H125.26v1.653H114.281Z" transform="translate(-88.985 -57.252)" fill="#d6d4d2" fill-rule="evenodd"/></svg>