<svg xmlns="http://www.w3.org/2000/svg" width="411.617" height="90.229" viewBox="0 0 411.617 90.229"><path d="M351.386,92.587l-.519,4.437q0,6.972,4.667,9.507a8.069,8.069,0,0,0,3.86.864,10.005,10.005,0,0,0,4.033-.778,8.828,8.828,0,0,0,5.358-8.038,13.592,13.592,0,0,0-1.383-6.165,36.327,36.327,0,0,0-3.457-5.531l-4.609-5.646q-5.589-6.684-7.49-12.186a31.175,31.175,0,0,1-1.9-10.112,33.043,33.043,0,0,1,1.124-8.729,36.518,36.518,0,0,1,3.14-7.836,34.87,34.87,0,0,1,4.84-6.828,32.016,32.016,0,0,1,6.28-5.358q7.2-4.84,14.289-4.84t11.063,1.959a18.66,18.66,0,0,1,6.4,4.955,21.245,21.245,0,0,1,4.494,13.655,25.516,25.516,0,0,1-4.206,14q-3.86,5.992-8.643,7.605a6.467,6.467,0,0,1-2.852.519,7.552,7.552,0,0,1-3.054-.547,7.057,7.057,0,0,1-2.161-1.469,6.111,6.111,0,0,1-2.017-4.379,2.184,2.184,0,0,1,.979-2.132,22.539,22.539,0,0,0,7.605-6.856,17.819,17.819,0,0,0,3.688-9.766q.173-4.869-2.333-7.2a9.375,9.375,0,0,0-6.655-2.333,15.057,15.057,0,0,0-7.49,1.873,18.713,18.713,0,0,0-5.762,5.042,25.745,25.745,0,0,0-5.186,16.075q0,6.165,4.264,13.021,1.786,2.938,3.889,5.791t3.947,5.848q4.206,6.972,4.206,12.5a19.965,19.965,0,0,1-1.988,9.334,22.273,22.273,0,0,1-5.272,6.626,24.027,24.027,0,0,1-16.133,6.107q-8.527,0-13.137-5.07a13.017,13.017,0,0,1-3.687-8.873,13.333,13.333,0,0,1,2.938-8.758,8.863,8.863,0,0,1,4.321-3.227Q351.386,88.438,351.386,92.587Zm46.151,2.247a37.6,37.6,0,0,1,1.671-9.593,46.337,46.337,0,0,1,3.86-8.873,51.868,51.868,0,0,1,5.675-8.124,44.621,44.621,0,0,1,7.058-6.712q8.239-6.165,16.651-6.165,9.853,0,13.137,8.124a16.278,16.278,0,0,1,1.095,6.54A18.085,18.085,0,0,1,445.244,77a20.258,20.258,0,0,1-3.832,5.819,27.93,27.93,0,0,1-5.819,4.7,39.909,39.909,0,0,1-7.346,3.515,54.411,54.411,0,0,1-17.516,3,10.872,10.872,0,0,0-.288,2.42,15.469,15.469,0,0,0,.346,3.6,10.507,10.507,0,0,0,1.383,3.543,6.6,6.6,0,0,0,5.992,3.457,24.467,24.467,0,0,0,13.021-3.918,18.312,18.312,0,0,0,3.659-2.737,3.866,3.866,0,0,1,2.449-1.412,2.189,2.189,0,0,1,1.815,1.239,5.145,5.145,0,0,1,.778,2.794,8.442,8.442,0,0,1-1.729,5.3q-7.26,7.26-21.606,7.26-8.47,0-13.6-5.07Q397.191,104.744,397.537,94.834Zm33.648-31.8q-6.05,0-11.639,8.3a62.513,62.513,0,0,0-7.605,16.939A28,28,0,0,0,428.65,80.66q6.511-6.223,6.511-11.927T431.186,63.029Zm21.664,50.588a7.59,7.59,0,0,1-1.844-1.93,4.131,4.131,0,0,1-.749-1.844,5.019,5.019,0,0,1,.317-1.9q.374-1.124,1.008-2.737,11.754-28.924,11.754-38.834a4.739,4.739,0,0,0-1.9-3.918l-1.152-.807a1.756,1.756,0,0,1-.547-1.412,2.885,2.885,0,0,1,.72-1.93,6.886,6.886,0,0,1,1.959-1.613,10.685,10.685,0,0,1,5.1-1.325,11.572,11.572,0,0,1,4.091.576A7.692,7.692,0,0,1,474.11,57.5a6.151,6.151,0,0,1,2.218,4.379,19.537,19.537,0,0,1-.519,4.667q-.547,2.362-1.3,4.638t-1.5,4.321a29.619,29.619,0,0,0-.979,3.025,8.111,8.111,0,0,0-.346,2.535,4.908,4.908,0,0,0,1.671-2.362l2.247-4.264q7.49-13.482,14.635-17.861a9.727,9.727,0,0,1,4.984-1.21,5.933,5.933,0,0,1,4.7,2.045,7.116,7.116,0,0,1,1.873,4.523,14.51,14.51,0,0,1-.346,4.12,11.793,11.793,0,0,1-1.3,3.083q-1.9,3.227-4.609,3.227a2.138,2.138,0,0,1-1.383-.519l-1.268-1.095a5.668,5.668,0,0,0-3.659-1.671q-1.757,0-4.264,2.3a43.018,43.018,0,0,0-5.214,5.935,110.315,110.315,0,0,0-14.865,26.965l-2.535,6.684a18.359,18.359,0,0,1-1.729,3.543,2.536,2.536,0,0,1-2.218,1.066,8.367,8.367,0,0,1-2.938-.547A10.375,10.375,0,0,1,452.85,113.617Zm48.11-4.206a10.783,10.783,0,0,1-.864-4.494,23.212,23.212,0,0,1,.807-5.733,57.8,57.8,0,0,1,2.074-6.424q1.268-3.284,2.823-6.684l2.938-6.684q5.7-13.194,4.206-15.557a7.277,7.277,0,0,0-2.65-2.189,1.541,1.541,0,0,1-.634-1.412,2.852,2.852,0,0,1,.835-1.93,7.441,7.441,0,0,1,2.218-1.613,12.82,12.82,0,0,1,5.589-1.325,11.775,11.775,0,0,1,4.292.6,7.938,7.938,0,0,1,2.449,1.527,6.377,6.377,0,0,1,1.844,4.609,21.176,21.176,0,0,1-1.037,6.107q-1.037,3.4-2.593,7.145t-3.4,7.663l-3.4,7.548q-3.63,8.354-3.63,11.063,0,5.3,3.745,5.3,9.622,0,18.034-11.408a43.319,43.319,0,0,0,7.029-14.4,26.356,26.356,0,0,0,.979-6.712q0-3.025-.2-5.042a19.452,19.452,0,0,0-.663-3.572,11.716,11.716,0,0,0-2.535-4.782q-1.21-1.5,1.095-3.515,2.535-2.132,7.2-2.132a6.407,6.407,0,0,1,5.07,2.708q2.766,3.227,2.766,9.248a39.854,39.854,0,0,1-1.786,11.812,52.956,52.956,0,0,1-4.9,11.12,57.521,57.521,0,0,1-7.346,9.939,54.944,54.944,0,0,1-9.132,8.009q-10.486,7.375-20.973,7.375Q503.668,115.576,500.96,109.411Zm91.15-67.556a10.6,10.6,0,0,1-2.881,2.189,9.7,9.7,0,0,1-3.4,1.037,6.127,6.127,0,0,1-3.371-.547,7.956,7.956,0,0,1-2.737-2.132,8.933,8.933,0,0,1-2.478-5.819,8.211,8.211,0,0,1,.951-4.408,7.888,7.888,0,0,1,2.391-2.391A9.711,9.711,0,0,1,585.8,28a16.183,16.183,0,0,1,3.8.346A7.627,7.627,0,0,1,592.11,29.5a5.514,5.514,0,0,1,2.823,4.638,11.6,11.6,0,0,1-.778,4.552A10.834,10.834,0,0,1,592.11,41.855ZM580.3,104.226q1.5,0,1.5,1.959a8.389,8.389,0,0,1-2.362,5.358,11.6,11.6,0,0,1-9.276,4.033q-6.684,0-9.161-5.416a10.492,10.492,0,0,1-.922-4.609,22.018,22.018,0,0,1,.951-6.021q.951-3.313,2.362-6.972t3.083-7.4l3.054-7.26q3.342-8.124,3.342-10.717a7.069,7.069,0,0,0-.547-3.428,4.886,4.886,0,0,0-1.181-1.3l-1.152-.807a1.6,1.6,0,0,1-.576-1.412,2.96,2.96,0,0,1,.778-1.93,7.053,7.053,0,0,1,2.045-1.613,13.122,13.122,0,0,1,6.05-1.325q8.47,0,8.47,4.437a31.969,31.969,0,0,1-2.708,11.84q-2.708,6.655-4.609,10.746l-3.457,7.951q-3.8,8.758-3.8,12.618a2.241,2.241,0,0,0,2.535,2.535,8.654,8.654,0,0,0,3.745-.634A4.878,4.878,0,0,1,580.3,104.226Zm14.231-9.1a38.338,38.338,0,0,1,1.584-10,46.833,46.833,0,0,1,3.918-9.42,43.9,43.9,0,0,1,5.819-8.182A40.708,40.708,0,0,1,613.2,61.07a30.332,30.332,0,0,1,17.458-5.7q9.449,0,12.849,7.548a14.006,14.006,0,0,1,1.124,6.136,19.731,19.731,0,0,1-1.124,6.28,22.294,22.294,0,0,1-2.593,5.1q-3.515,5.07-7.087,5.07-3.976,0-5.877-2.189a4.644,4.644,0,0,1-1.037-4.437,2.348,2.348,0,0,1,1.037-1.354,17.766,17.766,0,0,0,2.189-1.93,13.518,13.518,0,0,0,3.918-9.161q.115-3.572-4.379-3.572-4.84,0-10.141,5.416-7.721,7.894-10.89,20.224-2.766,10.717,1.037,15.672a7.332,7.332,0,0,0,6.107,2.881,20.478,20.478,0,0,0,12.561-4.609,16.781,16.781,0,0,0,3-2.938Q632.5,98,633.479,98a1.952,1.952,0,0,1,1.642.951,4.19,4.19,0,0,1,.663,2.449,9.853,9.853,0,0,1-3.054,6.684,26.294,26.294,0,0,1-18.841,7.49q-9.392,0-14.52-5.358Q594.3,104.917,594.53,95.122Zm55.716-.288a37.6,37.6,0,0,1,1.671-9.593,46.335,46.335,0,0,1,3.86-8.873,51.87,51.87,0,0,1,5.675-8.124,44.62,44.62,0,0,1,7.058-6.712q8.239-6.165,16.651-6.165,9.853,0,13.137,8.124a16.278,16.278,0,0,1,1.095,6.54A18.085,18.085,0,0,1,697.953,77a20.257,20.257,0,0,1-3.832,5.819,27.93,27.93,0,0,1-5.819,4.7,39.909,39.909,0,0,1-7.346,3.515,54.411,54.411,0,0,1-17.516,3,10.872,10.872,0,0,0-.288,2.42,15.472,15.472,0,0,0,.346,3.6,10.505,10.505,0,0,0,1.383,3.543,6.6,6.6,0,0,0,5.992,3.457,24.467,24.467,0,0,0,13.021-3.918,18.313,18.313,0,0,0,3.659-2.737A3.866,3.866,0,0,1,690,98.982a2.189,2.189,0,0,1,1.815,1.239,5.145,5.145,0,0,1,.778,2.794,8.442,8.442,0,0,1-1.729,5.3q-7.26,7.26-21.606,7.26-8.47,0-13.6-5.07Q649.9,104.744,650.246,94.834Zm33.648-31.8q-6.05,0-11.639,8.3a62.515,62.515,0,0,0-7.605,16.939,28,28,0,0,0,16.709-7.605q6.511-6.223,6.511-11.927T683.895,63.029Zm18.668,41.83a7.193,7.193,0,0,1,.778-3.313,8.741,8.741,0,0,1,1.93-2.564,7.4,7.4,0,0,1,5.07-2.247,2.063,2.063,0,0,1,2.3,2.362q0,5.992,3.976,8.354a5.743,5.743,0,0,0,3,.864,8.874,8.874,0,0,0,2.65-.346,6.079,6.079,0,0,0,2.017-1.095,4.974,4.974,0,0,0,2.074-3.976,8.8,8.8,0,0,0-1.037-4.235,35.3,35.3,0,0,0-2.593-4.062l-3.284-4.609q-6.914-9.219-6.914-17,0-6.453,5.474-11.7,6.223-5.935,15.96-5.935,8.527,0,13.31,4.206a10.1,10.1,0,0,1,3.918,7.778,8.748,8.748,0,0,1-3.457,7.26,7.479,7.479,0,0,1-6.223,1.786,3.254,3.254,0,0,1-2.132-1.412,2.841,2.841,0,0,1-.288-2.564,9.77,9.77,0,0,0,.461-3,7.147,7.147,0,0,0-.576-2.881,6.722,6.722,0,0,0-1.556-2.247,6.134,6.134,0,0,0-4.235-1.9,11.544,11.544,0,0,0-3.659.49,7.781,7.781,0,0,0-2.535,1.412,6.669,6.669,0,0,0-2.247,5.1,12.083,12.083,0,0,0,1.037,5.214,30.5,30.5,0,0,0,2.564,4.379q1.527,2.189,3.313,4.437a45.023,45.023,0,0,1,3.284,4.725q3.63,5.819,3.63,10.227a13.731,13.731,0,0,1-1.844,7.375,18.006,18.006,0,0,1-4.782,5.1,23,23,0,0,1-14.059,4.667q-7.433,0-11.754-3.572A9,9,0,0,1,702.563,104.859Z" transform="translate(-339.574 -25.348)" opacity="0.09"/></svg>